<svg width="52" height="52" viewBox="0 0 52 52" fill="none" xmlns="http://www.w3.org/2000/svg">
<path fill-rule="evenodd" clip-rule="evenodd" d="M5.61887 52H46.3811C49.4843 52 52 49.4843 51.9999 46.381V5.61887C51.9999 2.51571 49.4843 0 46.381 0H5.61887C2.51571 0 0 2.51571 0 5.61887V46.3811C0 49.4843 2.51571 52 5.61887 52ZM25.1093 6.33327C25.6916 5.99698 26.4095 5.99698 26.9918 6.33327L42.5795 15.3305C43.1624 15.6668 43.5213 16.2883 43.5213 16.9609V34.9699C43.5213 35.6426 43.1624 36.2641 42.5801 36.601L26.9925 45.6055C26.4095 45.9419 25.6916 45.9419 25.1087 45.6055L9.51747 36.601C8.93508 36.2641 8.57617 35.6426 8.57617 34.9699V16.9615C8.57617 16.2883 8.93508 15.6668 9.51808 15.3305L25.1093 6.33327Z" fill="white"/>
</svg>
