<svg width="49" height="52" viewBox="0 0 49 52" fill="none" xmlns="http://www.w3.org/2000/svg">
<path d="M44.4824 27.4697C44.0148 26.8635 43.5074 26.2571 42.9652 25.653C43.3379 25.2204 43.6931 24.787 44.0273 24.3538C47.482 19.8743 48.4629 15.8106 46.7892 12.9117C45.1155 10.0127 41.1064 8.83045 35.4991 9.58262C34.908 9.66195 34.3046 9.76249 33.6916 9.88193C33.483 9.27205 33.2621 8.68126 33.0283 8.11291C30.8762 2.88123 27.8475 0 24.5001 0C21.1527 0 18.124 2.88123 15.972 8.11291C15.7382 8.68126 15.5173 9.27205 15.3087 9.88193C14.6956 9.76259 14.0922 9.66195 13.5012 9.58262C7.89451 8.83055 3.88482 10.0127 2.21107 12.9117C0.537323 15.8107 1.51821 19.8743 4.97296 24.3538C5.3071 24.787 5.66227 25.2204 6.0351 25.653C5.49276 26.2571 4.98546 26.8634 4.51786 27.4697C1.06311 31.9492 0.0822214 36.0128 1.75597 38.9117C3.10076 41.241 5.95264 42.4619 9.93013 42.4619C10.903 42.4619 11.944 42.3887 13.046 42.2409C13.7557 42.1456 14.4831 42.0201 15.2241 41.8672C15.4572 42.5664 15.7063 43.2412 15.972 43.8872C18.124 49.1188 21.1527 52 24.5001 52C27.8475 52 30.8762 49.1188 33.0282 43.8871C33.2939 43.2411 33.543 42.5663 33.7761 41.8671C34.5171 42.02 35.2445 42.1456 35.9542 42.2408C37.0565 42.3886 38.0969 42.4618 39.07 42.4618C43.0471 42.4618 45.8996 41.2408 47.2442 38.9116C48.918 36.0127 47.9371 31.9492 44.4824 27.4697ZM38.6321 12.4034C41.4171 12.4034 43.3856 13.1104 44.1505 14.4351C45.1513 16.1685 44.227 19.1055 41.6146 22.4929C41.3657 22.8157 41.1035 23.1387 40.8305 23.4615C39.3031 22.0084 37.5838 20.5865 35.7132 19.2315C35.4548 16.9751 35.0663 14.8189 34.5583 12.8141C36.0497 12.5389 37.419 12.4034 38.6321 12.4034ZM28.5448 33.3117C27.1752 34.1024 25.8235 34.8117 24.501 35.4424C23.1776 34.8115 21.8256 34.1029 20.4554 33.3117C18.9436 32.4389 17.4968 31.515 16.1319 30.5555C16.0174 29.0981 15.9554 27.5774 15.9554 26C15.9554 24.233 16.0329 22.5368 16.1755 20.9217C17.3926 20.0859 18.6712 19.2791 20.0002 18.5118C21.5277 17.6299 23.0325 16.8505 24.5 16.1673C25.9676 16.8505 27.4724 17.6299 28.9999 18.5118C30.329 19.2791 31.6074 20.0859 32.8245 20.9217C32.9671 22.5368 33.0446 24.233 33.0446 26C33.0446 27.5774 32.9827 29.0981 32.8681 30.5555C31.5033 31.515 30.0566 32.4389 28.5448 33.3117ZM32.4034 34.5317C32.1992 35.8286 31.9516 37.0571 31.6672 38.2084C30.5372 37.8801 29.3597 37.4828 28.1454 37.0147C28.7878 36.6735 29.4294 36.3192 30.0682 35.9504C30.8639 35.4909 31.6426 35.0171 32.4034 34.5317ZM20.8546 37.0146C19.64 37.4828 18.4629 37.8797 17.3327 38.208C17.0484 37.0569 16.8008 35.8285 16.5967 34.5317C17.3575 35.0171 18.1362 35.4909 18.9318 35.9503C19.5706 36.3192 20.2121 36.6735 20.8546 37.0146ZM12.9457 28.1271C11.9809 27.3278 11.0769 26.5135 10.2427 25.6916C11.088 24.8855 11.9989 24.0882 12.9678 23.3065C12.9289 24.1956 12.9085 25.0943 12.9085 26C12.9085 26.7139 12.9214 27.4232 12.9457 28.1271ZM16.681 16.9516C16.8858 15.7376 17.1292 14.5869 17.4049 13.506C18.4875 13.8085 19.6156 14.1758 20.7796 14.6085C20.01 15.0102 19.2415 15.4317 18.4768 15.8732C17.868 16.2246 17.2695 16.5846 16.681 16.9516ZM28.2204 14.6084C29.3844 14.1757 30.5126 13.8083 31.5952 13.5059C31.871 14.5869 32.1143 15.7376 32.3192 16.9516C31.7306 16.5846 31.1321 16.2246 30.5234 15.8732C29.7586 15.4316 28.9902 15.0101 28.2204 14.6084ZM36.0324 23.3065C37.0013 24.0882 37.9121 24.8855 38.7574 25.6916C37.9233 26.5135 37.0193 27.3278 36.0544 28.1271C36.0787 27.4232 36.0916 26.7139 36.0916 26C36.0916 25.0942 36.0713 24.1956 36.0324 23.3065ZM24.5001 3.04688C26.7039 3.04688 29.0449 5.8503 30.7182 10.5927C28.7021 11.1593 26.6122 11.9105 24.5001 12.8289C22.388 11.9105 20.298 11.1594 18.2819 10.5927C19.9553 5.8503 22.2963 3.04688 24.5001 3.04688ZM4.84967 14.4352C5.61464 13.1103 7.58221 12.4035 10.3681 12.4035C11.581 12.4035 12.9505 12.539 14.4419 12.8143C13.9338 14.8191 13.5454 16.9753 13.2871 19.2316C11.4165 20.5866 9.69714 22.0085 8.16974 23.4616C7.89675 23.1388 7.63461 22.8158 7.38568 22.493C4.77319 19.1056 3.84887 16.1686 4.84967 14.4352ZM9.91296 39.42C7.12792 39.4198 5.15943 38.713 4.39457 37.3883C3.39377 35.6548 4.31809 32.7178 6.93048 29.3304C7.30271 28.8477 7.70276 28.3645 8.12821 27.8821C9.63834 29.3667 11.3524 30.823 13.2264 32.2136C13.4731 34.5765 13.8605 36.8368 14.3784 38.9347C12.7342 39.2608 11.2316 39.4201 9.91296 39.42ZM24.5001 48.9531C22.2535 48.9531 19.8647 46.0393 18.1856 41.1287C20.2358 40.5327 22.3586 39.7479 24.5001 38.794C26.6415 39.7479 28.7644 40.5327 30.8145 41.1287C29.1355 46.0393 26.7466 48.9531 24.5001 48.9531ZM44.6056 37.3883C43.4787 39.3403 39.7399 39.9498 34.6217 38.9347C35.1397 36.8368 35.5269 34.5765 35.7736 32.2136C37.6478 30.823 39.3618 29.3667 40.8719 27.8821C41.2973 28.3645 41.6974 28.8478 42.0696 29.3304C44.6822 32.7178 45.6065 35.6548 44.6056 37.3883Z" fill="white"/>
<path d="M24.5001 30.7073C27.1 30.7073 29.2076 28.5997 29.2076 25.9999C29.2076 23.4001 27.1 21.2925 24.5001 21.2925C21.9003 21.2925 19.7927 23.4001 19.7927 25.9999C19.7927 28.5997 21.9003 30.7073 24.5001 30.7073Z" fill="white"/>
</svg>
