<svg width="53" height="52" viewBox="0 0 53 52" fill="none" xmlns="http://www.w3.org/2000/svg">
<path d="M45.9712 9.93222L30.6851 1.11649C28.1038 -0.372214 24.8963 -0.372112 22.3149 1.11649L7.02895 9.93222C4.44256 11.4237 2.83594 14.2052 2.83594 17.1911V34.8088C2.83594 37.7948 4.44255 40.5763 7.02884 42.0677L22.3149 50.8834C24.8967 52.3724 28.1041 52.3719 30.6851 50.8834L45.9711 42.0677C48.5574 40.5763 50.1641 37.7948 50.1641 34.8088V17.1911C50.1641 14.2053 48.5574 11.4238 45.9712 9.93222ZM46.1016 34.8088C46.1016 36.3469 45.274 37.7796 43.9417 38.5479L28.6557 47.3636C27.3259 48.1306 25.674 48.1306 24.3442 47.3636L9.05816 38.5479C7.72597 37.7795 6.89844 36.3469 6.89844 34.8088V17.1911C6.89844 15.6531 7.72597 14.2204 9.05827 13.4522L24.3442 4.63644C25.6741 3.86944 27.3265 3.86975 28.6558 4.63644L43.9418 13.4521C45.274 14.2204 46.1016 15.653 46.1016 17.1911V34.8088Z" fill="white"/>
<path d="M24.5697 24.4493L17.0255 18.0648C16.1693 17.34 14.8875 17.4467 14.1628 18.3033C13.4382 19.1599 13.545 20.4417 14.4014 21.1665L20.113 26.0002L14.4014 30.8339C13.545 31.5587 13.4383 32.8405 14.1628 33.6971C14.8892 34.5555 16.1713 34.6585 17.0255 33.9355L24.5697 27.551C25.5295 26.7388 25.5267 25.2592 24.5697 24.4493Z" fill="white"/>
<path d="M37.2865 30.353H28.1464C27.0246 30.353 26.1152 31.2625 26.1152 32.3846C26.1152 33.5066 27.0246 34.4161 28.1464 34.4161H37.2865C38.4083 34.4161 39.3178 33.5066 39.3178 32.3846C39.3178 31.2625 38.4084 30.353 37.2865 30.353Z" fill="white"/>
</svg>
