<svg width="38" height="38" viewBox="0 0 38 38" fill="none" xmlns="http://www.w3.org/2000/svg">
<path fill-rule="evenodd" clip-rule="evenodd" d="M25.2706 0.725593C21.1461 -0.241864 16.8538 -0.241864 12.7295 0.725593C6.77333 2.1227 2.12272 6.77331 0.725593 12.7294C-0.241864 16.8538 -0.241864 21.1461 0.725593 25.2706C2.12272 31.2267 6.77333 35.8772 12.7295 37.2744C16.8538 38.2419 21.1461 38.2419 25.2706 37.2744C31.2267 35.8772 35.8772 31.2267 37.2744 25.2706C38.2419 21.1461 38.2419 16.8538 37.2744 12.7295C35.8772 6.77333 31.2267 2.1227 25.2706 0.725593ZM9.98468 13.1713C10.4134 12.6569 11.178 12.5874 11.6924 13.0161L15.8922 16.5158C17.4435 17.8087 17.4435 20.1913 15.8922 21.4839L11.6924 24.9837C11.178 25.4125 10.4134 25.343 9.98468 24.8285C9.55596 24.3141 9.62545 23.5494 10.1399 23.1206L14.3397 19.6209C14.7275 19.2976 14.7275 18.7021 14.3397 18.3789L10.1399 14.8791C9.62545 14.4504 9.55596 13.6858 9.98468 13.1713ZM20.0104 22.8397C19.3407 22.8397 18.7977 23.3826 18.7977 24.0523C18.7977 24.7219 19.3407 25.2649 20.0104 25.2649H27.0836C27.7533 25.2649 28.2962 24.7219 28.2962 24.0523C28.2962 23.3826 27.7533 22.8397 27.0836 22.8397H20.0104Z" fill="white"/>
</svg>
