<svg width="52" height="52" viewBox="0 0 52 52" fill="none" xmlns="http://www.w3.org/2000/svg">
<path d="M21.4118 30.5881H30.5882V21.4116H21.4118V30.5881ZM24.4706 24.4704H27.5294V27.5293H24.4706V24.4704Z" fill="white"/>
<path d="M44.1019 10.061C47.6376 11.9801 52 9.41445 52 5.35294C52 2.40138 49.5986 0 46.6471 0C42.5908 0 40.017 4.35699 41.939 7.89809C38.2978 11.5393 41.7744 8.06275 37.8444 11.9927C31.7786 6.85564 23.3542 6.33737 16.8477 10.0965L13.3164 6.56515C14.7684 3.53682 12.5492 0 9.17647 0C6.64652 0 4.58824 2.05828 4.58824 4.58824C4.58824 7.96171 8.12607 10.1796 11.1535 8.72805L14.298 11.8725C6.41619 18.4125 5.4026 30.0627 11.9929 37.8444C10.7331 39.1041 9.07981 40.7574 7.89819 41.939C4.36249 40.0199 0 42.5857 0 46.6471C0 49.5987 2.40138 52 5.35294 52C9.40935 52 11.983 47.643 10.0611 44.1019C11.2427 42.9202 12.8959 41.2671 14.1557 40.0073C20.2214 45.1443 28.6457 45.6627 35.1524 41.9035L38.6837 45.4348C37.2316 48.4633 39.4508 52 42.8235 52C45.3536 52 47.4118 49.9418 47.4118 47.4118C47.4118 44.0384 43.874 41.8203 40.8466 43.2719L37.7021 40.1274C45.5839 33.5874 46.5975 21.9373 40.0073 14.1556C43.9476 10.2152 40.4237 13.7391 44.1019 10.061ZM33.6471 33.6471H30.5882V36.7059H27.5294V33.6471H24.4706V36.7059H21.4118V33.6471H18.3529V30.5882H15.2941V27.5294H18.3529V24.4706H15.2941V21.4118H18.3529V18.3529H21.4118V15.2941H24.4706V18.3529H27.5294V15.2941H30.5882V18.3529H33.6471V21.4118H36.7059V24.4706H33.6471V27.5294H36.7059V30.5882H33.6471V33.6471Z" fill="white"/>
</svg>
