<svg width="53" height="52" viewBox="0 0 53 52" fill="none" xmlns="http://www.w3.org/2000/svg">
<path d="M51.46 8.11205C51.46 4.36805 48.34 1.24805 44.596 1.24805H8.40398C4.65998 1.24805 1.53998 4.36805 1.53998 8.11205V43.888C1.53998 47.632 4.65998 50.752 8.40398 50.752H44.804C48.548 50.752 51.668 47.632 51.668 43.888C51.46 22.672 51.46 22.048 51.46 8.11205ZM27.956 6.65605H43.764C45.012 6.65605 45.844 7.48805 45.844 8.73605C45.844 9.77605 45.012 10.816 43.764 10.816H27.956C26.708 10.816 25.876 9.77605 25.876 8.73605C25.876 7.48805 26.916 6.65605 27.956 6.65605ZM17.348 6.65605C18.388 6.65605 19.428 7.69605 19.428 8.73605C19.428 9.98405 18.596 10.816 17.348 10.816C16.1 10.816 15.268 9.98405 15.268 8.73605C15.268 7.48805 16.308 6.65605 17.348 6.65605ZM9.02798 6.65605C10.068 6.65605 11.108 7.69605 11.108 8.73605C11.108 9.98405 10.276 10.816 9.02798 10.816C7.77998 10.816 6.94798 9.98405 6.94798 8.73605C6.94798 7.48805 7.98798 6.65605 9.02798 6.65605ZM47.3 43.888C47.3 45.344 46.052 46.592 44.596 46.592H8.40398C6.94798 46.592 5.69998 45.344 5.69998 43.888V16.016H47.3V43.888Z" fill="white"/>
<path d="M17.348 34.1123C18.18 34.1123 18.596 34.5283 19.012 35.1523C19.22 35.5683 19.22 36.4003 18.596 36.8163H18.388C17.764 37.4403 17.764 38.4803 18.388 39.1043L19.428 40.1443C20.052 40.7683 21.092 40.7683 21.508 40.1443L21.716 39.9363C22.132 39.5203 22.756 39.3123 23.38 39.5203H23.588C24.212 39.7283 24.628 40.3523 24.628 40.9763V41.1843C24.628 42.0163 25.252 42.6403 26.084 42.6403H27.54C28.372 42.6403 28.996 42.0163 28.996 41.1843V40.9763C28.996 40.3523 29.412 39.7283 30.036 39.5203H30.244C30.868 39.3123 31.492 39.3123 31.908 39.9363L32.116 40.1443C32.74 40.7683 33.78 40.7683 34.196 40.1443L35.236 39.1043C35.86 38.4803 35.86 37.4403 35.236 36.8163H35.028C34.612 36.4003 34.404 35.7763 34.82 35.1523C35.028 34.5283 35.652 34.1123 36.276 34.1123H36.484C37.316 34.1123 37.94 33.4883 37.94 32.4483V30.9923C37.94 30.1603 37.316 29.3283 36.276 29.3283H36.068C35.444 29.3283 34.82 28.9123 34.612 28.2883C34.404 27.6643 34.404 27.0403 34.82 26.6243L35.028 26.4163C35.652 25.7923 35.652 24.7523 35.028 24.1283L33.988 23.0883C33.364 22.4643 32.324 22.4643 31.908 23.0883L31.7 23.2963C31.284 23.7123 30.66 23.9203 30.036 23.7123C30.036 23.7123 30.036 23.7123 29.828 23.7123C29.204 23.5043 28.788 22.8803 28.788 22.2563V22.0483C28.788 21.2163 28.164 20.5923 27.332 20.5923H25.876C25.044 20.5923 24.42 21.2163 24.42 22.0483V22.2563C24.42 22.8803 24.004 23.5043 23.38 23.7123C23.38 23.7123 23.38 23.7123 23.172 23.7123C22.548 23.9203 21.924 23.7123 21.508 23.2963L21.3 23.0883C20.676 22.4643 19.636 22.4643 19.22 23.0883L18.18 24.1283C17.556 24.7523 17.556 25.7923 18.18 26.4163H18.388C19.22 27.2483 19.22 27.8723 19.012 28.4963C18.804 29.1203 18.18 29.5363 17.556 29.5363H17.348C16.516 29.5363 15.892 30.1603 15.892 31.2003V32.6563C15.892 33.2803 16.516 34.1123 17.348 34.1123ZM26.916 27.6643C29.204 27.6643 31.076 29.5363 31.076 31.8243C31.076 34.1123 29.204 35.9843 26.916 35.9843C24.628 35.9843 22.756 34.1123 22.756 31.8243C22.964 29.5363 24.628 27.6643 26.916 27.6643Z" fill="white"/>
</svg>
